# xmcd CD database file
#
# Track frame offsets:
#	150
#	19380
#	42425
#	63082
#	84417
#	101605
#	121255
#	147615
#	169505
#	191792
#	205905
#	225058
#	250291
#	266818
#	283595
#	300999
#	319946
#
# Disc length: 4483 seconds
#
# Revision: 0
# Processed by: cddbd v1.5.1PL0 Copyright (c) Steve Scherf et al.
# Submitted via: CDex 1.51
#
DISCID=ec118111
DTITLE=BoA - LOVE and HONESTY
DYEAR=2004
DGENRE=JPop
TTITLE0=Rock With You
TTITLE1=Shine We Are!
TTITLE2=SOME DAY ONE DAY feat. VERBAL (m-flo)
TTITLE3=LOVE and HONESTY
TTITLE4=Be the one
TTITLE5=EXPECT
TTITLE6=OVER -across the time-
TTITLE7=心の手紙
TTITLE8=Easy To Be Hard
TTITLE9=Song With No Name -名前のない歌-
TTITLE10=HOLIDAY PALMDRIVE feat. BoA and FIRSKLAS
TTITLE11=奇蹟 (SOUL'd OUT Remix)
TTITLE12=Flying without wings westlife featuring BoA
TTITLE13=天使の息づかい (Beat Of Angel)
TTITLE14=こんな私に (Where Are You)
TTITLE15=POWER
TTITLE16=Time To Begin
EXTD=YEAR: 2004
EXTT0=
EXTT1=
EXTT2=
EXTT3=
EXTT4=
EXTT5=
EXTT6=
EXTT7=
EXTT8=
EXTT9=
EXTT10=
EXTT11=
EXTT12=
EXTT13=
EXTT14=
EXTT15=
EXTT16=
PLAYORDER=
